<?xml version="1.0" encoding="utf-8"?>
<!-- Generator: Adobe Illustrator 25.4.1, SVG Export Plug-In . SVG Version: 6.00 Build 0)  -->
<svg version="1.1" id="图层_1" xmlns="http://www.w3.org/2000/svg" xmlns:xlink="http://www.w3.org/1999/xlink" x="0px" y="0px"
	 viewBox="0 0 475.1 367.6" style="enable-background:new 0 0 475.1 367.6;" xml:space="preserve">
<style type="text/css">
	.st0{fill:#FFFFFF;}
</style>
<g id="图层_2_00000000915434313907576580000003158942955511393424_">
	<g id="图层_2-2">
		<path class="st0" d="M120,160.3c-8,8.5-16.4,16.7-24.6,25S79.1,202,71.1,210.6c-15.9,17.1-31.3,34.8-44.5,54.1
			C19.8,274.2,14,284.4,9.2,295c-1.2,2.6-2.2,5.4-3.2,8.1s-1.8,5.5-2.5,8.3c-1.5,5.6-2.2,11.4-2.1,17.2c0.1,2.9,0.4,5.8,1,8.6
			c0.3,1.4,0.6,2.8,1,4.2l0.7,2c0.2,0.7,0.5,1.4,0.8,2c2.4,5.2,6.2,9.7,10.9,13c4.7,3.3,10.1,5.6,15.8,6.6
			c5.7,1.1,11.5,1.3,17.2,0.3h0.1c11.2-0.8,22.2-3.5,33-6.8s21.4-7.3,31.8-11.6s20.7-9.1,30.7-14.4c2.5-1.3,5-2.7,7.4-4.1l7.3-4.3
			c4.9-2.9,9.7-5.8,14.6-8.7c19.5-11.6,38.5-23.9,56.8-37.2c9.2-6.6,18.2-13.5,27.1-20.5s17.7-14.1,26.5-21.2l0.1,0.1
			c-8.6,7.3-17.3,14.6-26.1,21.8c-8.8,7.2-17.7,14.1-26.8,20.9c-18.2,13.6-37.2,26-56.5,37.8c-4.9,2.9-9.7,5.8-14.6,8.7l-7.3,4.3
			c-2.5,1.4-5,2.8-7.5,4.1c-10,5.3-20.3,10.1-30.8,14.4s-21.2,8.2-32,11.5s-22,6-33.4,6.7h0.1c-5.9,0.9-11.9,0.8-17.7-0.4
			c-5.9-1.2-11.4-3.6-16.3-7c-4.9-3.5-8.7-8.2-11.2-13.6c-0.3-0.7-0.6-1.4-0.8-2.1L2,341.8c-0.4-1.4-0.7-2.9-1-4.3
			c-0.6-2.9-0.9-5.8-1-8.8c-0.1-5.9,0.6-11.8,2.2-17.6c0.7-2.9,1.6-5.7,2.6-8.4s2.1-5.5,3.3-8.2c4.9-10.7,10.8-20.8,17.6-30.4
			c13.4-19.3,28.9-36.9,44.9-53.9c8-8.5,16.2-16.8,24.5-25.1s16.7-16.4,24.7-24.9L120,160.3z"/>
		<path class="st0" d="M387.8,192.9c16.1-19.1,31.4-38.8,45.7-59.3c7-10.3,13.9-20.7,19.9-31.6c6.2-10.8,11.3-22.1,15.4-33.9
			c1.9-5.9,3.3-11.9,4.1-18c0.8-6.1,0.4-12.3-1-18.2l-0.6-2.2c-0.2-0.7-0.5-1.4-0.8-2.1c-0.6-1.4-1.2-2.8-1.9-4.1
			c-1.5-2.6-3.3-5.1-5.4-7.3c-2.1-2.2-4.5-4.1-7-5.7c-2.6-1.6-5.4-2.9-8.2-4c-5.8-2.1-11.9-3.4-18-4c-6.2-0.6-12.4-0.9-18.6-0.8
			c-6.2,0-12.5,0.4-18.7,0.8l-18.7,1.2V3.3l18.6-1.9c6.2-0.6,12.5-1,18.7-1.2c6.3-0.3,12.6-0.1,18.9,0.5c6.3,0.5,12.5,1.8,18.5,3.9
			c3,1.1,5.9,2.5,8.6,4.1c2.7,1.7,5.2,3.7,7.5,6c2.2,2.3,4.1,4.9,5.7,7.8c0.8,1.4,1.4,2.9,2,4.4c0.3,0.7,0.6,1.5,0.8,2.2l0.7,2.3
			c1.4,6.2,1.7,12.6,0.9,18.9c-0.9,6.2-2.3,12.4-4.4,18.3c-4.1,11.8-9.4,23.3-15.7,34.1c-6.2,10.9-13.1,21.3-20.2,31.6
			c-14.5,20.3-30.1,39.9-46.4,58.8L387.8,192.9z"/>
	</g>
</g>
</svg>
