<svg xmlns="http://www.w3.org/2000/svg" width="16.25" height="17" viewBox="0 0 16.25 17">
  <defs>
    <style>
      .cls-1 {
        fill: #38b25d;
        fill-rule: evenodd;
      }
    </style>
  </defs>
  <path id="シェイプ_1" data-name="シェイプ 1" class="cls-1" d="M301.519,3487.21c0.586,1.73,3.734,2.34,3.734,2.34s-3.176-.41-3.713,1.26a6.334,6.334,0,0,1-1.2,2.08c1,0.4,2.255.87,3.315,1.32,0.935,0.4,3.413-2.05,3.413-2.05,0.116,1.51.01,3.52,0.558,3.79,0.421,0.21,2.656,1.02,2.656,1.02,0.042-.46,1.322-1.57,1.7-2.47,0.6-1.4-1.784-3.14-1.784-3.14s3.044,1.27,4.373.49a3.964,3.964,0,0,0,1.514-2.02c0.033-.09.505-1.07,0.505-1.07s-1.33-.94-1.584-1.19c-1.2-1.2-4.084.05-4.084,0.05s2.165-1.69,1.912-3-1.079-1.61-1.336-2.18a3.429,3.429,0,0,1-.221-0.72c-0.295.25-1.793,0.01-3.034,0.82-1.105.72-.821,4.11-0.821,4.11s-1.6-2.99-3-2.77a18.555,18.555,0,0,0-2.7.74C301.935,3485.16,301.37,3486.77,301.519,3487.21Z" transform="translate(-300.344 -3480.845)"/>
</svg>
