<?xml version="1.0" encoding="utf-8"?>
<!-- Generator: Adobe Illustrator 25.4.1, SVG Export Plug-In . SVG Version: 6.00 Build 0)  -->
<svg version="1.1" id="图层_1" xmlns="http://www.w3.org/2000/svg" xmlns:xlink="http://www.w3.org/1999/xlink" x="0px" y="0px"
	 viewBox="0 0 200 200" style="enable-background:new 0 0 200 200;" xml:space="preserve">
<style type="text/css">
	.st0{fill:#8bdaa3;}
</style>
<path class="st0" d="M200,75h-75l28-28c-14.2-14.2-33-22-53-22s-38.9,7.8-53,22c-14.2,14.2-22,33-22,53s7.8,38.9,22,53
	c14.2,14.2,33,22,53,22s38.9-7.8,53-22c1.2-1.2,2.3-2.4,3.4-3.6l18.8,16.5C156.9,186.8,130,200,100,200C44.8,200,0,155.2,0,100
	S44.8,0,100,0c27.6,0,52.6,11.2,70.7,29.3L200,0V75z"/>
</svg>
